<svg xmlns:xlink="http://www.w3.org/1999/xlink" xmlns="http://www.w3.org/2000/svg" version="1.1" viewBox="0 0 800 800" height="800px" width="800px">
    
    <title>17. Get a voucher/deals</title>
    <desc>Created with Sketch.</desc>
    <defs>
        <rect rx="19.9056" height="426.010002" width="233.740001" y="0" x="0" id="path-1"></rect>
        <path id="path-3" d="M-1.13686838e-13,87.7101887 C21.5180925,32.1438396 63.8723113,2.90711005 127.062657,-2.84217094e-14 C115.523255,9.05480667 107.931297,15.678122 104.286781,19.8699461 C95.8554941,29.5673866 93.0988508,39.4124483 90.0337212,40.2721436 L77.6610039,42.2465362 C68.8731709,53.5542916 61.2424499,59.2081693 54.7688409,59.2081693 C45.4747714,66.309862 36.1394731,70.3100319 26.7629459,71.2086791 C17.3864187,72.1073262 8.4654367,77.6078294 -1.13686838e-13,87.7101887 Z"></path>
        <path id="path-5" d="M29.6639402,134.193468 C16.9771299,125.002587 9.51345284,113.629998 7.2729092,100.075702 C3.91209373,79.7442591 -0.634655429,84.1182536 1.63871915,69.0079083 C3.91209373,53.8975631 7.43170371,45.5819574 1.63871915,29.6188839 C-4.15426541,13.6558103 7.2729092,6.08735763 7.2729092,2.84217094e-14 C13.9328984,4.76198172 18.4652421,12.6930633 20.8699404,23.7932448 C24.4769879,40.4435171 32.7644533,50.5719823 34.5282784,58.8343583 C36.2921035,67.0967342 33.4760135,78.787197 37.22276,83.7741527 C40.9695064,88.7611084 42.0839196,96.0123085 37.22276,110.616033 C33.9819869,120.351849 31.4623803,128.210994 29.6639402,134.193468 Z"></path>
        <path id="path-7" d="M96.0221516,112.895206 C80.4267886,52.4518187 48.4806161,14.8200833 0.183634153,5.68434189e-14 C-1.14166349,11.8231613 4.70659763,22.3551917 17.7284175,31.5960911 C11.9300728,42.5143573 18.3950865,51.6031032 37.1234585,58.862329 C43.4537983,62.2197376 49.005576,69.5013684 53.7787916,80.7072213 C58.5520072,91.9130743 72.6331272,102.642403 96.0221516,112.895206 Z"></path>
        <path id="path-9" d="M2.02896708,98.711049 C-1.31348319,88.3516916 -0.526255636,80.8618826 4.39064976,76.2416218 C7.69680488,71.8217633 8.4961663,65.7273095 6.78873401,57.9582604 C4.22758558,46.3046868 12.9107755,42.1032907 17.4523619,35.0064347 C17.9654283,27.0836208 20.9857259,21.9481985 26.5132546,19.6001679 C32.0407833,17.2521374 36.9754985,10.718748 41.3174003,-5.68434189e-14 C51.1868308,16.0692624 51.1868308,28.3124987 41.3174003,36.729709 C39.9948457,45.8258456 36.8353327,52.7092461 31.8388612,57.3799107 C24.344154,64.3859075 28.6823551,68.5689232 26.5132546,75.3022701 C25.0671876,79.7911681 16.9057584,87.5940944 2.02896708,98.711049 Z"></path>
        <polygon points="0.118351328 0 47.525155 0 42.5349652 47.0327953 5.10854119 47.0327953" id="path-11"></polygon>
        <rect rx="16" height="224" width="349" y="115" x="291" id="path-13"></rect>
        <filter id="filter-14" filterUnits="objectBoundingBox" height="117.0%" width="110.9%" y="-6.2%" x="-6.6%">
            <feOffset result="shadowOffsetOuter1" in="SourceAlpha" dy="5" dx="-4"></feOffset>
            <feGaussianBlur result="shadowBlurOuter1" in="shadowOffsetOuter1" stdDeviation="5.5"></feGaussianBlur>
            <feColorMatrix in="shadowBlurOuter1" type="matrix" values="0 0 0 0 0.0458443624   0 0 0 0 0.185534017   0 0 0 0 0.331210371  0 0 0 0.215909091 0"></feColorMatrix>
        </filter>
        <path id="path-15" d="M328.306165,159 L536.344026,159 L536.344026,159 L544.212864,165.894019 L552.0495,159 L603,159 C612.941125,159 621,167.058875 621,177 L621,220.872737 L621,220.872737 L610.657651,231.335693 L621,240.862487 L621,278 C621,287.941125 612.941125,296 603,296 L552.0495,296 L552.0495,296 L544.212864,289.16482 L536.344026,296 L328.343914,296 C318.402789,296 310.343914,287.941125 310.343914,278 C310.343914,277.886449 310.344989,277.772901 310.347138,277.65937 L311.043602,240.862487 L311.043602,240.862487 L321.039195,231.187442 L311.043602,220.872737 L310.308725,177.303561 C310.141072,167.363849 318.062892,159.170212 328.002603,159.00256 C328.103781,159.000853 328.204972,159 328.306165,159 Z"></path>
        <rect rx="28.8000011" height="194.057151" width="135.600005" y="0" x="0" id="path-17"></rect>
        <path id="path-19" d="M2.29644134,0 L0.296441335,42.7325787 L10.3525452,42.7325787 L10.3525452,35.836019 L22.7260977,42.7325787 L62.4691986,42.7325787 C63.1619851,39.1550231 61.7046915,36.3858226 58.0973181,34.4249769 C54.4899446,32.4641312 42.1890406,27.2032831 21.1946062,18.6424325 L23.1946062,0 L2.29644134,0 Z"></path>
        <path id="path-21" d="M0.296441335,0 L0.296441335,42.7325787 L10.3525452,42.7325787 L10.3525452,35.836019 L22.7260977,42.7325787 L62.4691986,42.7325787 C63.1619851,39.1550231 61.7046915,36.3858226 58.0973181,34.4249769 C54.4899446,32.4641312 42.1890406,27.2032831 21.1946062,18.6424325 L21.1946062,0 L0.296441335,0 Z"></path>
        <path id="path-23" d="M113.413805,78.3634446 L93.8939203,54.5832986 L75.9396235,66.9097617 C61.4225745,56.1562793 51.4314411,47.631838 45.9662232,41.3364379 C36.3062245,30.2090577 32.8551455,22.4511474 32.0890935,21.580095 C29.9648661,19.164706 29.9648661,16.2633577 25.4280738,13.462018 C23.3701464,12.1913067 21.0146557,8.81982874 19.8058734,6.46889317 C19.0000186,4.9016028 18.3285932,2.74530507 17.7915974,2.84217094e-14 C15.2954847,0.459107156 14.0474284,2.01656463 14.0474284,4.67237243 C14.0474284,7.32818023 14.8724466,10.3872567 16.5224831,13.849602 C7.65180527,13.0918532 2.73296821,12.9626585 1.76597191,13.462018 C0.315477463,14.2110573 -1.22438763,17.1328725 1.50506624,19.164706 C-0.150646505,21.0701738 0.0545014985,22.7149304 2.12051025,24.0989759 C1.45362012,26.647762 2.03853232,28.2805815 3.87524683,28.9974343 C3.39905933,30.3620154 3.79561692,31.5008512 5.0649196,32.4139418 C6.96887363,33.7835776 7.63862135,35.0951062 21.3425643,35.7578399 C29.0287077,50.0882304 35.1635049,60.4722043 39.7469559,66.9097617 C58.6973877,93.5260588 66.7103365,100.321685 74.23185,98.6491755 C81.0653851,97.1296477 94.1260369,90.3677374 113.413805,78.3634446 Z"></path>
        <path id="path-25" d="M36.5791335,28.2092824 C42.7534334,23.8081512 41.7982001,16.6321051 37.288545,16.6321051 C32.7788899,16.6321051 33.4541821,25.5418019 32.3699011,25.3957049 C31.6470471,25.298307 31.4421372,23.5807673 31.7551713,20.2430858 C29.4900658,19.5434277 28.1636134,17.3068368 27.775814,13.5333129 C14.6402241,12.9752305 7.44699145,8.46412621 6.19611609,-2.13162821e-14 C4.03433376,2.5368768 2.25022794,4.01223095 0.843798615,4.42606246 C-0.520553243,20.9668286 -0.230372883,32.5573315 1.7143397,39.1975711 C4.11508723,47.3949464 6.97269827,48.6516206 16.8742062,47.2332697 C18.6594669,54.3883837 18.3795156,59.1725535 16.0343524,61.5857793 C12.5166074,65.2056179 6.29875783,74.7934548 17.9549555,77.8139517 C25.725754,79.8276163 34.510168,73.817485 44.3081976,59.783558 L36.5791335,28.2092824 Z"></path>
    </defs>
    <g fill-rule="evenodd" fill="none" stroke-width="1" stroke="none" id="17.-Get-a-voucher/deals">
        <rect height="800" width="800" y="0" x="0" fill=""></rect>
        <g transform="translate(84.000000, 103.000000)">
            <path fill="#EEF6FF" id="Mask" d="M119.309971,247.124669 C119.309971,330.898401 -31.0293762,354.265806 5.81278695,477.399482 C42.6549501,600.533159 355.743928,666.513244 509.519008,472.738273 C663.294088,278.963301 361.251869,-41.0813944 212.765415,4.36438509 C64.2789615,49.8101646 119.309971,163.350938 119.309971,247.124669 Z"></path>
            <g transform="translate(255.000000, 59.000000)" id="Phone">
                <rect rx="22.6200001" height="531.570003" width="263.900002" y="0" x="0" fill="#4E94DD" id="Rectangle"></rect>
                <g transform="translate(15.080000, 41.470000)" id="Path-62">
                    <mask fill="white" id="mask-2">
                        <use xlink:href="#path-1"></use>
                    </mask>
                    <use xlink:href="#path-1" fill="#F3F9FF" id="Mask"></use>
                    <polygon points="233.740001 0 0 448.664494 0 0" mask="url(#mask-2)" opacity="0.100000001" fill="#A6D1FF"></polygon>
                </g>
                <circle r="16.9650001" cy="495.755003" cx="133.835001" fill="#F3F9FF" id="Oval"></circle>
                <line stroke-width="3.77000002" stroke="#F3F9FF" id="Path-61" y2="24.5050001" x2="162.825266" y1="24.5050001" x1="124.410001"></line>
                <circle r="5.65500003" cy="24.5050001" cx="111.215001" fill="#F3F9FF" id="Oval"></circle>
            </g>
            <g transform="translate(337.000000, 355.000000)" id="Flower">
                <path stroke-width="0.899999976" stroke="#AAC9F1" id="Path-50" d="M108.445005,200.990709 C112.653408,174.604714 124.749118,145.770952 144.732135,114.489426"></path>
                <path stroke-width="0.899999976" stroke="#AAC9F1" id="Path-51" d="M105.278965,200.990709 C105.756935,161.873486 111.279145,133.352842 121.845596,115.428777"></path>
                <path stroke-width="0.899999976" stroke="#AAC9F1" id="Path-52" d="M105.278965,199.37714 C103.176567,162.518595 100.090962,135.117895 96.0221516,117.175042"></path>
                <path stroke-width="0.899999976" stroke="#AAC9F1" id="Path-53" d="M103.633257,200.990709 C106.915747,187.528997 96.6430559,167.344401 72.8151849,140.436921"></path>
                <g transform="translate(127.948220, 56.220608)" id="Path-48-+-Path-58-+-Path-59-Mask">
                    <mask fill="white" id="mask-4">
                        <use xlink:href="#path-3"></use>
                    </mask>
                    <use xlink:href="#path-3" fill="#E4F0FF" id="Mask"></use>
                    <path mask="url(#mask-4)" stroke-width="0.899999976" stroke="#F1F7FF" id="Path-48" d="M9.15191739,67.3575316 C10.6315472,67.3575316 25.3852523,51.058807 54.7688409,59.2081693"></path>
                    <path mask="url(#mask-4)" stroke-width="0.899999976" stroke="#F1F7FF" id="Path-58" d="M23.8650384,42.2833558 C47.3741478,34.6170125 66.9081692,35.1409253 82.4671027,43.8550943"></path>
                    <path mask="url(#mask-4)" stroke-width="0.899999976" stroke="#F1F7FF" id="Path-59" d="M41.2867012,25.4064219 C41.2867012,25.4064219 79.1109615,3.08397483 121.069983,12.1333772"></path>
                </g>
                <g transform="translate(69.686866, 0.000000)" id="Path-55">
                    <mask fill="white" id="mask-6">
                        <use xlink:href="#path-5"></use>
                    </mask>
                    <use xlink:href="#path-5" fill="#E4F0FF" id="Mask"></use>
                    <path mask="url(#mask-6)" stroke-width="0.899999976" stroke="#FFFFFF" d="M7.2729092,0 C11.8702,19.3584006 14.1688454,33.0929471 14.1688454,41.2036394 C14.1688454,53.369678 13.7707167,62.5888069 18.835435,80.2002218 C22.2119139,91.9411651 25.8214157,109.938914 29.6639402,134.193468"></path>
                </g>
                <g transform="translate(0.000000, 58.041823)" id="Path-47-+-Path-49-+-Path-56-+-Path-57-Mask">
                    <mask fill="white" id="mask-8">
                        <use xlink:href="#path-7"></use>
                    </mask>
                    <use xlink:href="#path-7" fill="#B6D6FF" id="Mask"></use>
                    <line mask="url(#mask-8)" stroke-width="0.899999976" stroke="#C3DDFF" id="Path-47" y2="93.6893138" x2="61.4059723" y1="95.9423967" x1="91.4938729"></line>
                    <line mask="url(#mask-8)" stroke-width="0.899999976" stroke="#C3DDFF" id="Path-49" y2="74.0899859" x2="45.6386635" y1="79.856382" x1="85.3257712"></line>
                    <line mask="url(#mask-8)" stroke-width="0.899999976" stroke="#C3DDFF" id="Path-56" y2="57.3869548" x2="32.3638358" y1="61.6337311" x1="76.4499226"></line>
                    <path mask="url(#mask-8)" stroke-width="0.899999976" stroke="#C3DDFF" id="Path-57" d="M63.7873697,42.0338798 C39.0312663,36.3814727 21.7221512,32.5371319 11.8600243,30.5008575"></path>
                </g>
                <g transform="translate(110.495858, 39.187156)" id="Path-54">
                    <mask fill="white" id="mask-10">
                        <use xlink:href="#path-9"></use>
                    </mask>
                    <use xlink:href="#path-9" fill="#B6D6FF" id="Mask"></use>
                    <path mask="url(#mask-10)" stroke-width="0.899999976" stroke="#FFFFFF" d="M41.3174003,-5.68434189e-14 C39.0043722,10.2792162 37.1517648,17.4016215 35.759578,21.3672158 C31.504675,33.4871552 26.7950924,41.2268932 24.3597366,47.1588675 C12.4012188,76.2871031 3.11632823,93.5279538 2.02896708,98.711049"></path>
                </g>
                <g transform="translate(77.880560, 181.345315)" id="Group-2">
                    <g id="Group">
                        <g transform="translate(4.871839, 7.471739)" id="Path-46">
                            <mask fill="white" id="mask-12">
                                <use xlink:href="#path-11"></use>
                            </mask>
                            <use xlink:href="#path-11" fill="#F3F9FF" id="Mask"></use>
                            <polygon points="47.525155 6.87858216 -1.24754747 20.9770922 -1.24754747 5.28483754" mask="url(#mask-12)" fill="#C0E0FF"></polygon>
                        </g>
                        <rect height="14.9434774" width="57.3871834" y="-4.26325641e-14" x="0" fill="#F3F9FF" id="Rectangle"></rect>
                    </g>
                </g>
            </g>
            <g id="Rectangle">
                <use xlink:href="#path-13" filter="url(#filter-14)" fill-opacity="1" fill="black"></use>
                <use xlink:href="#path-13" fill-rule="evenodd" fill="#FCFDFF"></use>
            </g>
            <mask fill="white" id="mask-16">
                <use xlink:href="#path-15"></use>
            </mask>
            <use xlink:href="#path-15" transform="translate(465.500000, 227.500000) scale(-1, 1) translate(-465.500000, -227.500000)" fill="#AAD3FF" id="Mask"></use>
            <rect height="141" width="78" y="156" x="310" mask="url(#mask-16)" fill="#93C7FF" id="Rectangle"></rect>
            <g stroke-width="4" stroke="#D3E8FF" mask="url(#mask-16)" id="Group-3">
                <g transform="translate(404.000000, 197.000000)">
                    <line id="Path-175" y2="0.5" x2="171.321459" y1="0.5" x1="-4.54747351e-13"></line>
                    <line id="Path-175-Copy" y2="20.5" x2="141.321459" y1="20.5" x1="-2.13162821e-13"></line>
                    <line id="Path-175-Copy-2" y2="40.5" x2="171.321459" y1="40.5" x1="-9.9475983e-14"></line>
                    <line id="Path-175-Copy-3" y2="60.5" x2="121.321459" y1="60.5" x1="1.91846539e-13"></line>
                </g>
            </g>
            <g fill-rule="nonzero" transform="translate(501.000000, 124.000000)" id="726476">
                <path fill="#F5B315" id="Path" d="M97.7004087,51.2070046 L102.193209,39.4886035 C102.686009,38.1958034 102.302009,36.7302033 101.220409,35.8534032 L91.4796082,27.9558025 L89.508408,15.5590014 C89.290808,14.1894013 88.2156079,13.1206012 86.8460078,12.9030012 L74.4492067,10.931801 L66.558006,1.18460011 C65.6876059,0.103000009 64.1900057,-0.281000025 62.9292056,0.211800019 L51.2044046,4.71100042 L39.4860035,0.21820002 C38.1868034,-0.281000025 36.7340033,0.11580001 35.8572032,1.19100011 L27.9596025,10.938201 L15.5628014,12.9094012 C14.1996013,13.1270012 13.1244012,14.2022013 12.9068012,15.5654014 L10.935601,27.9622025 L1.18840011,35.8598032 C0.11320001,36.7302033 -0.277200025,38.1958034 0.215600019,39.4886035 L4.70840042,51.2070046 L0.215600019,62.9254056 C-0.283600025,64.2182057 0.11320001,65.6838059 1.18840011,66.554206 L10.935601,74.4454067 L12.9068012,86.8422078 C13.1244012,88.2118079 14.1932013,89.287008 15.5628014,89.504608 L27.9596025,91.4758082 L35.8572032,101.216609 C36.7340033,102.304609 38.1996034,102.688609 39.4924035,102.189409 L51.2044046,97.7030087 L62.9228056,102.195809 C63.2940057,102.336609 63.6780057,102.407009 64.0684057,102.407009 C65.0092058,102.407009 65.9372059,101.991009 66.558006,101.216609 L74.4492067,91.4758082 L86.8460078,89.504608 C88.2156079,89.287008 89.290808,88.2118079 89.508408,86.8422078 L91.4796082,74.4454067 L101.220409,66.554206 C102.302009,65.6774059 102.686009,64.2182057 102.193209,62.9254056 L97.7004087,51.2070046 Z"></path>
                <g fill="#FAFAFA" transform="translate(32.000003, 25.600002)" id="Group">
                    <path id="Shape" d="M9.60440086,19.2070017 C4.31160039,19.2070017 0.00440000039,14.8998013 0.00440000039,9.60700086 C0.00440000039,4.31420039 4.31160039,0.00700000063 9.60440086,0.00700000063 C14.8972013,0.00700000063 19.2044017,4.31420039 19.2044017,9.60700086 C19.2044017,14.8998013 14.8972013,19.2070017 9.60440086,19.2070017 Z M9.60440086,6.40700057 C7.8380007,6.40700057 6.40440057,7.8406007 6.40440057,9.60700086 C6.40440057,11.373401 7.8380007,12.8070011 9.60440086,12.8070011 C11.370801,12.8070011 12.8044011,11.373401 12.8044011,9.60700086 C12.8044011,7.8406007 11.370801,6.40700057 9.60440086,6.40700057 Z"></path>
                    <path id="Shape" d="M28.8044026,51.2070046 C23.5116021,51.2070046 19.2044017,46.8998042 19.2044017,41.6070037 C19.2044017,36.3142032 23.5116021,32.0070029 28.8044026,32.0070029 C34.097203,32.0070029 38.4044034,36.3142032 38.4044034,41.6070037 C38.4044034,46.8998042 34.097203,51.2070046 28.8044026,51.2070046 Z M28.8044026,38.4070034 C27.0444024,38.4070034 25.6044023,39.8470036 25.6044023,41.6070037 C25.6044023,43.3670039 27.0444024,44.807004 28.8044026,44.807004 C30.5644027,44.807004 32.0044029,43.3670039 32.0044029,41.6070037 C32.0044029,39.8470036 30.5644027,38.4070034 28.8044026,38.4070034 Z"></path>
                    <path id="Path" d="M3.20440029,51.2070046 C2.55800023,51.2070046 1.91160017,51.0150046 1.34840012,50.6118045 C-0.0916000082,49.5814044 -0.424400038,47.5846043 0.606000054,46.1446041 L32.6060029,1.34460012 C33.636403,-0.0954000085 35.6332032,-0.428200038 37.0732033,0.602200054 C38.5132034,1.62620015 38.8396035,3.62940032 37.8156034,5.06300045 L5.81560052,49.8630045 C5.18200046,50.7398045 4.20280038,51.2070046 3.20440029,51.2070046 Z"></path>
                </g>
            </g>
            <g transform="translate(4.000000, 263.000000)" id="Suitcase-2">
                <g id="Suitcase">
                    <path stroke-width="6.00000024" stroke="#FFFFFF" id="Path-67" d="M22.8560994,134.631437 L22.8560994,30.0000012 C22.8560994,13.431458 36.2875574,-4.06183536e-15 52.8561006,0 L81.4278091,0 C97.9963523,-3.043592e-15 111.42781,13.431458 111.42781,30.0000012 L111.42781,134.631437 L111.42781,134.631437"></path>
                    <rect rx="7.24580181" height="34.0632232" width="14.4916036" y="292.947552" x="18.6320618" fill="#9DC9F8" id="Rectangle"></rect>
                    <rect rx="7.24580181" height="34.0632232" width="14.4916036" y="292.947552" x="101.441225" fill="#9DC9F8" id="Rectangle-Copy-5"></rect>
                    <g transform="translate(0.000000, 118.502561)" id="Rectangle-Copy-4">
                        <g id="Rectangle-Copy">
                            <mask fill="white" id="mask-18">
                                <use xlink:href="#path-17"></use>
                            </mask>
                            <use xlink:href="#path-17" fill="#9DC9F8" id="Mask"></use>
                            <rect rx="28.8000011" height="194.057151" width="135.600005" y="4.12887554" x="4.14045818" mask="url(#mask-18)" fill="#ABD4FF"></rect>
                            <rect rx="24.000001" height="135.220674" width="94.1954236" y="34.0632232" x="20.7022909" mask="url(#mask-18)" fill="#9DC9F8" id="Rectangle-Copy-2"></rect>
                            <path mask="url(#mask-18)" fill="#ABD4FF" id="Rectangle-Copy-3" d="M48.84275,38.1920988 L95.0381717,38.1920988 C108.293006,38.1920988 119.038173,48.9372652 119.038173,62.1920997 L119.038173,144.251677 C119.038173,157.506512 108.293006,168.251678 95.0381717,168.251678 L48.84275,168.251678 C35.5879155,168.251678 24.8427491,157.506512 24.8427491,144.251677 L24.8427491,62.1920997 C24.8427491,48.9372652 35.5879155,38.1920988 48.84275,38.1920988 Z"></path>
                            <rect rx="4.80000019" height="14.4510644" width="44.5099254" y="62.965352" x="45.54504" mask="url(#mask-18)" fill="#FFFFFF" id="Rectangle"></rect>
                        </g>
                    </g>
                    <line stroke-linecap="round" stroke-width="13.2000005" stroke="#9DC9F8" id="Path-68" y2="1.52118108" x2="93.9680495" y1="1.52118108" x1="40.3162266"></line>
                </g>
            </g>
            <g transform="translate(99.000000, 86.000000)" id="Man">
                <g transform="translate(17.050850, 198.403738)" id="Pants">
                    <g transform="translate(69.155750, 263.541485)" id="Path-141-Copy">
                        <mask fill="white" id="mask-20">
                            <use xlink:href="#path-19"></use>
                        </mask>
                        <use xlink:href="#path-19" fill="#FFA990" id="Mask"></use>
                        <path mask="url(#mask-20)" fill="#201F1D" id="Path-141" d="M0.296441335,16.0185491 C6.79540428,21.46266 13.6151597,25.0683486 20.7557077,26.8356149 C24.2375851,27.2993345 26.5528884,25.1620712 27.7016178,20.4238249 L64.1900855,34.4805085 L65.6487131,45.3062665 L-1,44.4663958 L-1,16.0185491 L0.296441335,16.0185491 Z"></path>
                    </g>
                    <g transform="translate(15.155750, 263.541485)" id="Path-141">
                        <mask fill="white" id="mask-22">
                            <use xlink:href="#path-21"></use>
                        </mask>
                        <use xlink:href="#path-21" fill="#FFA990" id="Mask"></use>
                        <path mask="url(#mask-22)" fill="#201F1D" d="M0.296441335,16.0185491 C6.79540428,21.46266 13.6151597,25.0683486 20.7557077,26.8356149 C24.2375851,27.2993345 26.5528884,25.1620712 27.7016178,20.4238249 L64.1900855,34.4805085 L65.6487131,45.3062665 L-1,44.4663958 L-1,16.0185491 L0.296441335,16.0185491 Z"></path>
                    </g>
                    <path fill="#222942" id="Path-138" d="M5.59413155,-2.84217094e-14 C3.63264974e-13,12.4576361 -1.39853289,27.9897236 1.39853289,46.5962623 C4.19559866,65.2028011 6.630353,139.243323 8.70279592,268.717828 L45.4287133,268.717828 L54.1456942,74.4528536 L71.4219452,124.093665 L62.6670476,268.717828 L101.580821,268.717828 C111.894182,175.211686 116.454979,122.466125 115.263212,110.481145 C114.071445,98.4961652 102.28502,61.6691169 79.9039378,-2.84217094e-14 L5.59413155,-2.84217094e-14 Z"></path>
                </g>
                <g transform="translate(119.000000, 111.000000) scale(-1, 1) translate(-119.000000, -111.000000)">
                    <g transform="translate(0.000000, 37.147945)" id="Body">
                        <g transform="translate(59.616352, 65.952328) rotate(52.000000) translate(-59.616352, -65.952328) translate(-3.883648, 40.452328)" id="Right-Hand"></g>
                        <path fill="#13BB84" id="Path-99" d="M223.294373,183.458675 L210.907827,98.1555411 L230.296464,101.713701 C229.727995,70.604358 226.304635,52.6659546 220.026384,47.8984911 C214.90019,44.0058554 202.651012,40.2759521 183.278849,36.7087812 C155.417805,38.2241608 139.492488,40.0510162 135.502898,42.1893473 C131.513309,44.3276784 118.283269,56.2201835 95.8127803,77.8668626 L119.303495,106.499421 L128.839363,98.8523092 C129.463172,155.256553 129.775076,183.458675 129.775076,183.458675 C129.775076,183.458675 160.948175,183.458675 223.294373,183.458675 Z"></path>
                        <g transform="translate(167.722432, 110.293280) scale(-1, 1) rotate(42.000000) translate(-167.722432, -110.293280) translate(118.222432, 60.793280)" id="Hand">
                            <path fill="#FFA990" id="Path-42" d="M62.5439019,29.0810293 L79.1231413,28.065332 C69.7714921,71.3769141 61.5205322,94.6886116 54.3702615,98.0004247 C47.2199909,101.312238 29.1212197,95.5117285 0.0739477802,80.5988967 L16.5275397,57.6092355 L42.2171185,72.0292621 L62.5439019,29.0810293 Z"></path>
                            <line stroke-width="0.93571369" stroke="#052043" id="Path" y2="46.3036285" x2="98.3445406" y1="0.12770342" x1="56.7675509"></line>
                        </g>
                        <g transform="translate(3.898807, 25.427908)" id="Path-95-+-Path-96-+-Path-97-+-Path-171-+-Path-172-Mask">
                            <mask fill="white" id="mask-24">
                                <use xlink:href="#path-23"></use>
                            </mask>
                            <use xlink:href="#path-23" fill="#FFA990" id="Mask"></use>
                            <path mask="url(#mask-24)" stroke-width="0.857737567" stroke="#4C1819" id="Path-95" d="M0.65406077,18.8507715 C3.8183153,19.0027344 7.18383073,19.0787158 10.7506071,19.0787158 C16.1007716,19.0787158 17.1042772,14.3052415 10.7506071,14.3052415"></path>
                            <path mask="url(#mask-24)" stroke-width="0.857737567" stroke="#4C1819" id="Path-96" d="M0.327753255,23.5057107 C7.34553431,24.188523 11.6103831,24.400507 13.1222997,24.1416625 C15.3901746,23.7533958 16.6636813,20.4400293 12.5100646,18.7349268"></path>
                            <path mask="url(#mask-24)" stroke-width="0.857737567" stroke="#4C1819" id="Path-97" d="M2.37816857,28.3412569 C8.48609909,28.4006525 12.1012647,28.4303503 13.2236654,28.4303503 C14.9072665,28.4303503 16.7616916,25.2572837 13.1222997,24.1416625"></path>
                            <path mask="url(#mask-24)" stroke-width="0.857737567" stroke="#4C1819" id="Path-171" d="M5.0649196,32.4139418 C10.4453892,33.0350693 13.607028,33.072565 14.549836,32.5264288 C15.9640481,31.7072246 15.7882247,28.8984717 13.6872653,28.3412569"></path>
                            <path mask="url(#mask-24)" stroke-width="0.857737567" stroke="#4C1819" id="Path-172" d="M15.1475821,15.6460714 L16.5224831,15.4896785 C15.7873009,22.1469469 18.1298151,26.8008833 23.5500256,29.4514878"></path>
                        </g>
                        <g transform="translate(95.910653, 72.826641)" id="Path-95-+-Path-96-+-Path-97-+-Path-171-+-Path-172-Mask">
                            <path transform="translate(26.579004, 27.505139) rotate(-21.000000) translate(-26.579004, -27.505139)" fill="#FFA990" id="Mask" d="M46.1175392,38.9657074 C41.8224078,32.0060135 39.493082,28.3194932 39.1295618,27.9061463 C37.0053344,25.4907574 37.0053344,22.589409 32.4685421,19.7880694 C30.4106147,18.517358 28.055124,15.1458801 26.8463417,12.7949445 C26.0404868,11.2276542 25.3690615,9.07135645 24.8320657,6.32605138 C22.335953,6.78515853 21.0878967,8.34261601 21.0878967,10.9984238 C21.0878967,13.6542316 21.9129149,16.7133081 23.5629514,20.1756533 C14.6922735,19.4179045 9.77343649,19.2887099 8.80644019,19.7880694 C7.35594574,20.5371087 5.81608065,23.4589239 8.54553451,25.4907574 C6.88982177,27.3962251 7.09496977,29.0409817 9.16097853,30.4250273 C8.4940884,32.9738134 9.07900059,34.6066329 10.9157151,35.3234857 C10.4395276,36.6880668 10.8360852,37.8269026 12.1053879,38.7399932 C14.0093419,40.109629 14.6790896,41.4211576 28.3830326,42.0838913 C29.5063019,43.6087639 31.1133168,45.8088755 33.2040773,48.6842261 L46.1175392,38.9657074 Z"></path>
                            <path stroke-width="0.857737567" stroke="#4C1819" id="Path-35" d="M23.2155418,21.1981084 C13.1381866,24.0602403 7.85833537,25.8127762 7.37598806,26.455716 C6.65246709,27.4201257 4.88407555,30.5949157 9.02142015,32.0871692 C8.08618794,34.2891697 8.89618721,35.8092535 11.451418,36.6474205 C11.8204903,38.8638128 12.9486204,40.0916519 14.8358083,40.330938 C15.0492468,42.9904207 17.2683412,44.090001 21.4930918,43.6296788"></path>
                            <polyline points="134.385811 28.4612914 101.532907 21.1699868 92.2128535 48.64254" stroke-width="0.93571369" stroke="#052043" id="Path-36"></polyline>
                            <line stroke-width="0.93571369" stroke="#052043" id="Path-37" y2="21.1699868" x2="101.532907" y1="0.730772433" x1="102.965036"></line>
                            <path stroke-width="0.857737567" stroke="#4C1819" id="Path-38" d="M21.1366236,21.7433311 C14.8544875,14.8533941 13.5950098,10.391885 17.3581905,8.35880392"></path>
                        </g>
                    </g>
                    <g transform="translate(139.176226, 0.000000)" id="Head">
                        <path fill="#30150D" id="Path-98" d="M2.77773392,27.0376033 C-1.35991347,17.9853856 -0.875053876,13.0777022 4.23231271,12.3145531 C3.30191002,7.45861166 5.19729364,4.31901565 9.91846356,2.8957651 C17.0002184,0.760889261 47.1460389,-5.14727405 48.9952737,10.3698906 C57.0962013,11.4057422 59.2560192,19.4365791 55.4747275,34.4624013 C50.8618398,47.6531293 45.9874489,55.4974472 40.8515547,57.995355 C35.7156605,60.4932627 23.0243869,50.1740121 2.77773392,27.0376033 Z"></path>
                        <g transform="translate(3.242248, 15.130491)" id="Path-102">
                            <mask fill="white" id="mask-26">
                                <use xlink:href="#path-25"></use>
                            </mask>
                            <use xlink:href="#path-25" fill="#FFA990" id="Mask"></use>
                            <path mask="url(#mask-26)" fill="#E79279" d="M9.76519091,47.6522349 C16.7436031,47.9261839 22.2510411,45.6146413 26.2875048,40.717607 C24.8716616,53.342814 20.8588449,61.4692047 14.2490545,65.0967791 C7.63926419,68.7243536 6.14464298,62.9095055 9.76519091,47.6522349 Z"></path>
                            <path mask="url(#mask-26)" stroke-width="0.982499368" stroke="#4C1819" id="Path-30" d="M4.92353712,19.5771351 C2.73916229,25.461232 2.0946071,28.7118255 2.98987155,29.3289153 C3.885136,29.9460052 5.32028804,30.1052513 7.29532769,29.8066538"></path>
                            <ellipse ry="1.13930377" rx="1.14030972" cy="19.4137917" cx="1.99819576" mask="url(#mask-26)" fill="#4C1819" id="Oval"></ellipse>
                            <ellipse ry="1.13930377" rx="1.14030972" cy="19.4137917" cx="11.4362943" mask="url(#mask-26)" fill="#4C1819" id="Oval-Copy-2"></ellipse>
                            <path mask="url(#mask-26)" fill="#FFFFFF" id="Path-31" d="M6.31282832,39.2999747 C4.13285498,39.2999747 2.56757432,37.98698 1.61698631,35.3609906 C3.24936109,35.8241106 4.66626795,36.0556707 5.8677069,36.0556707 C7.06914585,36.0556707 8.79237522,35.8241106 11.037395,35.3609906 C10.0676572,37.98698 8.49280165,39.2999747 6.31282832,39.2999747 Z"></path>
                            <path mask="url(#mask-26)" stroke-width="0.982499368" stroke="#4C1819" id="Path-32" d="M9.13642384,15.099227 C11.6424188,13.9325174 13.9952831,14.1115496 16.1950167,15.6363236"></path>
                            <path mask="url(#mask-26)" stroke-width="0.982499368" stroke="#4C1819" id="Path-33" d="M0.857886033,14.9884646 C2.01895247,14.2632317 3.38212602,14.3800599 4.94740668,15.3389494"></path>
                        </g>
                    </g>
                </g>
            </g>
        </g>
    </g>
</svg>